<svg xmlns="http://www.w3.org/2000/svg" version="1.1" xmlns:xlink="http://www.w3.org/1999/xlink" viewBox="0 0 5.9456142388293 4.96378868572246"><g transform="matrix(1,0,0,1,2.97280711941465,4.151443602440622)"><rect width="5.9456142388293" height="5.9456142388293" x="-2.97280711941465" y="-4.642356378994043" fill="#f9f9f9"></rect><g transform="matrix(1,0,0,1,0,0)"><path d=" M -2.1339468403890773 -1.6339266035538365 L -2.020077729117058 -1.6178385490375067 L -1.988601100715543 -1.8406259406566756 L -1.8410663391544044 -1.8197814178485614 L -1.8725429675559193 -1.5969940262293925 L -1.7467918620642107 -1.5792272181983151 L -1.7111183498758271 -1.8317195953667065 L -1.5556622588348958 -1.8097559035487607 L -1.6187554117641545 -1.3631909541254486 L -2.316822572170884 -1.4618177231168619 L -2.2537294192416253 -1.9083826725401738 L -2.098273328200694 -1.8864189807222278 L -2.1339468403890773 -1.6339266035538365 M -1.404562436638603 -2.3535257981273277 L -1.534357158119665 -2.1398593986264856 L -1.4557994120143993 -2.047676534021069 L -1.5627502625147947 -1.8716154208323752 L -2.031860535424637 -2.4572855940958367 L -1.9145261072057569 -2.650440019244598 L -1.1790770658167742 -2.503213297756864 L -1.286547095203094 -2.326297518970167 L -1.404562436638603 -2.3535257981273277 M -1.5582020417493962 -2.3895240167138003 L -1.7925233934244071 -2.442942217256273 L -1.636598053523958 -2.2604695114152915 L -1.5582020417493962 -2.3895240167138003 M -1.0243226143913975 -2.7900392096405664 L -0.7823522654432775 -2.9552643597537527 L -0.6926908358596712 -2.8239562181743976 L -1.116345405860987 -2.534671228385781 L -1.200367751822983 -2.6577209962809 L -1.1853104431202304 -3.149937693940203 L -1.4248032799630794 -2.9864042689134997 L -1.513900801184525 -3.1168865731244315 L -1.090246231183209 -3.4061715629130482 L -1.006223885221213 -3.2831217950179292 L -1.0243226143913975 -2.7900392096405664 M -0.09616800724231589 -3.6875428770416074 L -0.2487846026448743 -3.168338509949292 L -0.20644660204507898 -2.9483760274546364 L -0.39989574959618246 -2.911141267998566 L -0.44223375019597777 -3.1311037504932218 L -0.7766769374601571 -3.556559687685991 L -0.5567144549655013 -3.5988976882857857 L -0.3835390799990655 -3.3552374955885904 L -0.3131845636321325 -3.645771903235559 L -0.09616800724231589 -3.6875428770416074 M 0.40291483112274007 -3.468729686102069 L 0.38023209244961004 -3.3559888622347294 L 0.6008119652335353 -3.311609590917736 L 0.5714230255613928 -3.16553669738527 L 0.3508431527774676 -3.2099159687022634 L 0.32579351963409786 -3.0854108849531143 L 0.5757840421225466 -3.0351143774605216 L 0.5448171728035777 -2.881198644006849 L 0.10267707224557623 -2.97015442784669 L 0.24173212237215622 -3.661304695902989 L 0.6838722229301577 -3.5723489120631484 L 0.6529053536111888 -3.4184331786094764 L 0.40291483112274007 -3.468729686102069 M 1.078879798820593 -2.698732301878919 L 0.8731230437280398 -2.8407328572784776 L 0.7765277614701748 -2.7676688343566362 L 0.606984195273911 -2.8846772920058723 L 1.2189437057358112 -3.3189347704161256 L 1.4049478123394792 -3.1905662683349245 L 1.215201163327498 -2.464923650244777 L 1.044834570110864 -2.5825001101156113 L 1.078879798820593 -2.698732301878919 M 1.1237518080621878 -2.850018463792764 L 1.1907062610384491 -3.0808367932786385 L 0.9994747279862857 -2.935786799254098 L 1.1237518080621878 -2.850018463792764 M 2.1234834136785325 -2.3052561304430577 L 1.989980230009154 -2.224553590519334 L 1.8927233229215894 -2.385442042633713 L 1.4228948111620465 -2.1014311809790693 L 1.3214993122835217 -2.2691659502046986 L 1.7913278240430648 -2.553176811859342 L 1.69510556490324 -2.7123536846959087 L 1.8286087485726181 -2.793056224619632 L 2.1234834136785325 -2.3052561304430577 M 1.6028449152962765 -1.8104638341422161 Q 1.64776634607668 -1.8979013264246543 1.7543524271378232 -1.9214896142817115 L 1.7882288926929921 -1.7152533781797852 Q 1.752204436525022 -1.7062957804101822 1.7385089189738998 -1.684791529690687 Q 1.7248134014227776 -1.663287278971192 1.7296760519809358 -1.6336839914924468 Q 1.7340524374832782 -1.6070410327615758 1.7502104630076392 -1.5919606411501457 Q 1.7663684885320001 -1.5768802495387153 1.7900511185149965 -1.5807703699852418 Q 1.8206411822430335 -1.5857951088953386 1.8327158162747696 -1.6171671221077488 Q 1.8447904503065058 -1.648539135320159 1.854977008665618 -1.7160834469148183 Q 1.866488766115559 -1.7878990402105206 1.8808157005179358 -1.8333219303720898 Q 1.8951426349203124 -1.8787448205336592 1.9309880661798442 -1.9165549389917942 Q 1.9668334974393757 -1.954365057449929 2.032947506141907 -1.9652249770298156 Q 2.10004829109373 -1.9762469849616409 2.153417943150281 -1.9505578775547519 Q 2.206787595206832 -1.9248687701478628 2.2411823025554365 -1.8697144039888371 Q 2.2755770099040404 -1.8145600378298117 2.2878957246513747 -1.7395650428836564 Q 2.3078325919398233 -1.6181915642208005 2.263006451473049 -1.5363434296614042 Q 2.2181803110062743 -1.4544952951020083 2.1163660228396504 -1.4327042252539357 L 2.081841203876727 -1.6428875663530278 Q 2.113255955502117 -1.6490611698643547 2.126045740979917 -1.6699099441072656 Q 2.138835526457717 -1.6907587183501762 2.1341349642514973 -1.71937522957963 Q 2.130569020508848 -1.7410843070640434 2.115471692340918 -1.7527920259789227 Q 2.1003743641729873 -1.764499744893802 2.076691734189991 -1.7606096244472753 Q 2.056956209204161 -1.7573678574085032 2.0451603230444824 -1.739722544441375 Q 2.0333644368848036 -1.7220772314742467 2.026731318361831 -1.6976794500451866 Q 2.020098199838858 -1.6732816686161265 2.011603755687431 -1.6262833237669905 Q 1.999767821533613 -1.5564412829698713 1.9846161992338833 -1.5098695282070718 Q 1.9694645769341537 -1.4632977734442725 1.9346059219239136 -1.4256497433380761 Q 1.8997472669136732 -1.3880017132318798 1.8385671394575995 -1.3779522354116862 Q 1.7764002357522342 -1.367740669239554 1.7219556402015923 -1.3907197034953063 Q 1.6675110446509507 -1.4136987377510586 1.6292502764811496 -1.467711362377684 Q 1.5909895083113486 -1.5217239870043096 1.5778603518043215 -1.601652863196922 Q 1.557923484515873 -1.7230263418597782 1.6028449152962765 -1.8104638341422161" fill="#343432" fill-rule="nonzero"></path></g><g transform="matrix(1,0,0,1,0,0)"><path d=" M -2.4314620361328125 0.3469999999999999 Q -2.4619620361328125 0.3344999999999999 -2.4802120361328126 0.30999999999999994 Q -2.4984620361328127 0.2854999999999999 -2.4994620361328126 0.25099999999999995 L -2.4084620361328124 0.25099999999999995 Q -2.4064620361328126 0.2704999999999999 -2.3949620361328123 0.28074999999999994 Q -2.3834620361328125 0.2909999999999999 -2.3649620361328125 0.2909999999999999 Q -2.3459620361328124 0.2909999999999999 -2.3349620361328123 0.28224999999999995 Q -2.3239620361328126 0.2734999999999999 -2.3239620361328126 0.2579999999999999 Q -2.3239620361328126 0.24499999999999994 -2.3327120361328126 0.23649999999999993 Q -2.3414620361328127 0.22799999999999992 -2.3542120361328127 0.22249999999999992 Q -2.3669620361328123 0.21699999999999992 -2.3904620361328126 0.20999999999999994 Q -2.4244620361328124 0.19949999999999993 -2.4459620361328125 0.18899999999999992 Q -2.4674620361328126 0.17849999999999994 -2.4829620361328124 0.15799999999999992 Q -2.4984620361328127 0.13749999999999993 -2.4984620361328127 0.10449999999999993 Q -2.4984620361328127 0.05549999999999994 -2.4629620361328124 0.02774999999999994 Q -2.4274620361328125 -5.551115123125783e-17 -2.3704620361328126 -5.551115123125783e-17 Q -2.3124620361328123 -5.551115123125783e-17 -2.2769620361328125 0.02774999999999994 Q -2.2414620361328126 0.05549999999999994 -2.2389620361328126 0.10499999999999993 L -2.3314620361328124 0.10499999999999993 Q -2.3324620361328123 0.08799999999999991 -2.3439620361328126 0.07824999999999993 Q -2.3554620361328125 0.0684999999999999 -2.3734620361328127 0.0684999999999999 Q -2.3889620361328125 0.0684999999999999 -2.3984620361328126 0.07674999999999993 Q -2.4079620361328127 0.08499999999999991 -2.4079620361328127 0.10049999999999992 Q -2.4079620361328127 0.11749999999999991 -2.3919620361328127 0.12699999999999992 Q -2.3759620361328126 0.13649999999999993 -2.3419620361328124 0.14749999999999994 Q -2.3079620361328126 0.15899999999999992 -2.2867120361328124 0.16949999999999993 Q -2.2654620361328126 0.17999999999999994 -2.2499620361328123 0.19999999999999993 Q -2.2344620361328125 0.21999999999999992 -2.2344620361328125 0.25149999999999995 Q -2.2344620361328125 0.2814999999999999 -2.2497120361328125 0.30599999999999994 Q -2.2649620361328124 0.3304999999999999 -2.2939620361328124 0.3449999999999999 Q -2.3229620361328127 0.35949999999999993 -2.3624620361328126 0.35949999999999993 Q -2.4009620361328126 0.35949999999999993 -2.4314620361328125 0.3469999999999999 M -2.0964669189453127 0.0734999999999999 L -2.0964669189453127 0.14449999999999993 L -1.9819669189453124 0.14449999999999993 L -1.9819669189453124 0.21049999999999994 L -2.0964669189453127 0.21049999999999994 L -2.0964669189453127 0.2874999999999999 L -1.9669669189453125 0.2874999999999999 L -1.9669669189453125 0.3559999999999999 L -2.1819669189453124 0.3559999999999999 L -2.1819669189453124 0.004999999999999893 L -1.9669669189453125 0.004999999999999893 L -1.9669669189453125 0.0734999999999999 L -2.0964669189453127 0.0734999999999999 M -1.8259591064453125 0.0734999999999999 L -1.8259591064453125 0.14449999999999993 L -1.7114591064453124 0.14449999999999993 L -1.7114591064453124 0.21049999999999994 L -1.8259591064453125 0.21049999999999994 L -1.8259591064453125 0.2874999999999999 L -1.6964591064453125 0.2874999999999999 L -1.6964591064453125 0.3559999999999999 L -1.9114591064453126 0.3559999999999999 L -1.9114591064453126 0.004999999999999893 L -1.6964591064453125 0.004999999999999893 L -1.6964591064453125 0.0734999999999999 L -1.8259591064453125 0.0734999999999999 M -1.4494637451171875 0.004999999999999893 L -1.4494637451171875 0.3559999999999999 L -1.5349637451171876 0.3559999999999999 L -1.5349637451171876 0.004999999999999893 L -1.4494637451171875 0.004999999999999893 M -1.1349722900390624 0.004999999999999893 L -1.1349722900390624 0.0734999999999999 L -1.2279722900390624 0.0734999999999999 L -1.2279722900390624 0.3559999999999999 L -1.3134722900390625 0.3559999999999999 L -1.3134722900390625 0.0734999999999999 L -1.4064722900390625 0.0734999999999999 L -1.4064722900390625 0.004999999999999893 L -1.1349722900390624 0.004999999999999893 M -1.0887205810546874 0.34674999999999995 Q -1.1029705810546875 0.3334999999999999 -1.1029705810546875 0.31399999999999995 Q -1.1029705810546875 0.29399999999999993 -1.0887205810546874 0.2804999999999999 Q -1.0744705810546875 0.2669999999999999 -1.0519705810546875 0.2669999999999999 Q -1.0299705810546875 0.2669999999999999 -1.0157205810546874 0.2804999999999999 Q -1.0014705810546876 0.29399999999999993 -1.0014705810546876 0.31399999999999995 Q -1.0014705810546876 0.3334999999999999 -1.0157205810546874 0.34674999999999995 Q -1.0299705810546875 0.35999999999999993 -1.0519705810546875 0.35999999999999993 Q -1.0744705810546875 0.35999999999999993 -1.0887205810546874 0.34674999999999995 M -0.5924918212890624 0.004999999999999893 L -0.5924918212890624 0.0734999999999999 L -0.6854918212890625 0.0734999999999999 L -0.6854918212890625 0.3559999999999999 L -0.7709918212890625 0.3559999999999999 L -0.7709918212890625 0.0734999999999999 L -0.8639918212890625 0.0734999999999999 L -0.8639918212890625 0.004999999999999893 L -0.5924918212890624 0.004999999999999893 M -0.3309901123046875 0.29399999999999993 L -0.4619901123046875 0.29399999999999993 L -0.48299011230468747 0.3559999999999999 L -0.5724901123046875 0.3559999999999999 L -0.4454901123046875 0.004999999999999893 L -0.3464901123046875 0.004999999999999893 L -0.2194901123046875 0.3559999999999999 L -0.3099901123046875 0.3559999999999999 L -0.3309901123046875 0.29399999999999993 M -0.35299011230468746 0.22799999999999992 L -0.3964901123046875 0.09949999999999992 L -0.4394901123046875 0.22799999999999992 L -0.35299011230468746 0.22799999999999992 M 0.07250964355468753 0.17374999999999993 Q 0.05850964355468752 0.19899999999999993 0.029509643554687492 0.2144999999999999 Q 0.0005096435546874944 0.22999999999999993 -0.04249035644531249 0.22999999999999993 L -0.0954903564453125 0.22999999999999993 L -0.0954903564453125 0.3559999999999999 L -0.1809903564453125 0.3559999999999999 L -0.1809903564453125 0.004999999999999893 L -0.04249035644531249 0.004999999999999893 Q -0.0004903564453125064 0.004999999999999893 0.02850964355468749 0.019499999999999906 Q 0.05750964355468752 0.03399999999999992 0.07200964355468753 0.05949999999999994 Q 0.08650964355468749 0.08499999999999991 0.08650964355468749 0.11799999999999991 Q 0.08650964355468749 0.1484999999999999 0.07250964355468753 0.17374999999999993 M -0.01249035644531249 0.1504999999999999 Q -0.0004903564453125064 0.13899999999999993 -0.0004903564453125064 0.11799999999999991 Q -0.0004903564453125064 0.09699999999999992 -0.01249035644531249 0.08549999999999991 Q -0.0244903564453125 0.0739999999999999 -0.048990356445312494 0.0739999999999999 L -0.0954903564453125 0.0739999999999999 L -0.0954903564453125 0.16199999999999992 L -0.048990356445312494 0.16199999999999992 Q -0.0244903564453125 0.16199999999999992 -0.01249035644531249 0.1504999999999999 M 0.3225089111328125 0.004999999999999893 L 0.3225089111328125 0.3559999999999999 L 0.2370089111328125 0.3559999999999999 L 0.2370089111328125 0.004999999999999893 L 0.3225089111328125 0.004999999999999893 M 0.6370003662109376 0.004999999999999893 L 0.6370003662109376 0.0734999999999999 L 0.5440003662109375 0.0734999999999999 L 0.5440003662109375 0.3559999999999999 L 0.4585003662109375 0.3559999999999999 L 0.4585003662109375 0.0734999999999999 L 0.3655003662109375 0.0734999999999999 L 0.3655003662109375 0.004999999999999893 L 0.6370003662109376 0.004999999999999893 M 0.6832520751953125 0.34674999999999995 Q 0.6690020751953125 0.3334999999999999 0.6690020751953125 0.31399999999999995 Q 0.6690020751953125 0.29399999999999993 0.6832520751953125 0.2804999999999999 Q 0.6975020751953125 0.2669999999999999 0.7200020751953125 0.2669999999999999 Q 0.7420020751953125 0.2669999999999999 0.7562520751953125 0.2804999999999999 Q 0.7705020751953124 0.29399999999999993 0.7705020751953124 0.31399999999999995 Q 0.7705020751953124 0.3334999999999999 0.7562520751953125 0.34674999999999995 Q 0.7420020751953125 0.35999999999999993 0.7200020751953125 0.35999999999999993 Q 0.6975020751953125 0.35999999999999993 0.6832520751953125 0.34674999999999995 M 1.0124808349609375 0.0734999999999999 L 1.0124808349609375 0.14449999999999993 L 1.1269808349609376 0.14449999999999993 L 1.1269808349609376 0.21049999999999994 L 1.0124808349609375 0.21049999999999994 L 1.0124808349609375 0.2874999999999999 L 1.1419808349609375 0.2874999999999999 L 1.1419808349609375 0.3559999999999999 L 0.9269808349609375 0.3559999999999999 L 0.9269808349609375 0.004999999999999893 L 1.1419808349609375 0.004999999999999893 L 1.1419808349609375 0.0734999999999999 L 1.0124808349609375 0.0734999999999999 M 1.4159886474609376 0.29399999999999993 L 1.2849886474609375 0.29399999999999993 L 1.2639886474609374 0.3559999999999999 L 1.1744886474609375 0.3559999999999999 L 1.3014886474609375 0.004999999999999893 L 1.4004886474609375 0.004999999999999893 L 1.5274886474609375 0.3559999999999999 L 1.4369886474609375 0.3559999999999999 L 1.4159886474609376 0.29399999999999993 M 1.3939886474609375 0.22799999999999992 L 1.3504886474609374 0.09949999999999992 L 1.3074886474609375 0.22799999999999992 L 1.3939886474609375 0.22799999999999992 M 1.8184884033203126 0.004999999999999893 L 1.8184884033203126 0.0734999999999999 L 1.7254884033203126 0.0734999999999999 L 1.7254884033203126 0.3559999999999999 L 1.6399884033203125 0.3559999999999999 L 1.6399884033203125 0.0734999999999999 L 1.5469884033203125 0.0734999999999999 L 1.5469884033203125 0.004999999999999893 L 1.8184884033203126 0.004999999999999893 M 2.0529776611328123 0.004999999999999893 L 2.0529776611328123 0.3559999999999999 L 1.9674776611328124 0.3559999999999999 L 1.9674776611328124 0.004999999999999893 L 2.0529776611328123 0.004999999999999893 M 2.3674691162109376 0.004999999999999893 L 2.3674691162109376 0.0734999999999999 L 2.2744691162109376 0.0734999999999999 L 2.2744691162109376 0.3559999999999999 L 2.1889691162109375 0.3559999999999999 L 2.1889691162109375 0.0734999999999999 L 2.0959691162109375 0.0734999999999999 L 2.0959691162109375 0.004999999999999893 L 2.3674691162109376 0.004999999999999893 M 2.4137208251953126 0.34674999999999995 Q 2.3994708251953125 0.3334999999999999 2.3994708251953125 0.31399999999999995 Q 2.3994708251953125 0.29399999999999993 2.4137208251953126 0.2804999999999999 Q 2.4279708251953127 0.2669999999999999 2.4504708251953127 0.2669999999999999 Q 2.4724708251953125 0.2669999999999999 2.4867208251953126 0.2804999999999999 Q 2.5009708251953127 0.29399999999999993 2.5009708251953127 0.31399999999999995 Q 2.5009708251953127 0.3334999999999999 2.4867208251953126 0.34674999999999995 Q 2.4724708251953125 0.35999999999999993 2.4504708251953127 0.35999999999999993 Q 2.4279708251953127 0.35999999999999993 2.4137208251953126 0.34674999999999995" fill="#aac527" fill-rule="nonzero"></path></g><g transform="matrix(1,0,0,1,0,0)"><g clip-path="url(#SvgjsClipPath1002)"><g clip-path="url(#b32a43dc5-e787-409d-bf24-7ba1084f074a24ac74a6-09dc-45f6-bd37-da8eb8e209d2)"><path d=" M 0.8964245949303049 -1.9221937158040472 C 0.8858322886118208 -1.9327655953534915 0.8686804222973261 -1.9327655953534915 0.8580881159788416 -1.9221937158040472 L 0.5905636388096671 -1.6546576179986339 C 0.579972001801774 -1.6440896039399213 0.5628246071842165 -1.6440896039399213 0.5522329701763233 -1.6546576179986339 C 0.5416746900911928 -1.6652419404171082 0.5416746900911928 -1.6823749126229064 0.5522329701763233 -1.6929592350413807 L 0.8197806886179753 -1.9604895225286747 C 0.8248687124364333 -1.9655638972835312 0.8277282846410468 -1.9724544236244048 0.8277282846410468 -1.979640331050048 C 0.8277282846410468 -1.9868262384756916 0.8248687124364333 -1.9937167648165652 0.8197806886179753 -1.9987911395714217 C 0.8147069613326567 -2.003867058468495 0.8078241948604874 -2.006718864319627 0.8006473110509602 -2.006718864319627 C 0.793470427241433 -2.006718864319627 0.7865876607692632 -2.003867058468495 0.7815139334839447 -1.9987911395714217 L 0.5139662150422926 -1.7312550417660084 C 0.5033978208828356 -1.7206911600276764 0.48626785406771855 -1.7206911600276764 0.4756994599082618 -1.7312550417660084 C 0.4705946058957231 -1.736323994617244 0.4677236914666283 -1.743220553150075 0.4677236914666283 -1.750414565764561 C 0.4677236914666283 -1.7576085783790467 0.4705946058957231 -1.764505136911878 0.4756994599082618 -1.7695740897631134 L 0.7431774545324814 -2.03708113597793 C 0.7537645892622082 -2.047645997318843 0.7537853977920499 -2.064792225908594 0.7432239370774363 -2.0753827530206768 C 0.732625916827744 -2.0859575319978916 0.7154448061488299 -2.0859807732703692 0.7049106993984506 -2.0753827530206768 L 0.4373629809567985 -1.8078466552152637 C 0.4268114432520611 -1.7973009278286458 0.40963033257314696 -1.7973009278286458 0.39903231232345493 -1.8078466552152637 C 0.3884999974009322 -1.81845076517433 0.3884999974009322 -1.8355674035714218 0.39903231232345493 -1.846171513530488 L 0.6665742204469878 -2.1136785597453045 C 0.6716551080244977 -2.118756726464813 0.6745097497807031 -2.1256458318251736 0.6745097497807031 -2.132829368266678 C 0.6745097497807031 -2.1400129047081826 0.6716551080244977 -2.146902010068543 0.6665742204469878 -2.1519801767880518 C 0.6614958183636175 -2.1570628426360683 0.6546054674374957 -2.1599186132786468 0.6474205067665544 -2.1599186132786468 C 0.6402355460956131 -2.1599186132786468 0.6333451951694913 -2.1570628426360683 0.6282667930861214 -2.1519801767880518 L 0.23368227928302798 -1.7573898526668392 C 0.19643814013800243 -1.7201631444761718 0.17567206317945017 -1.6726754144867344 0.17567206317945017 -1.5159827554441372 L -0.6166171052568268 -0.7237168282803383 C -0.6397944642349087 -0.7005627105747334 -0.6397944642349087 -0.6629990039331437 -0.6166171052568268 -0.6398158346369422 C -0.616484516003799 -0.6396746889748597 -0.6163407258582883 -0.6395445005998699 -0.6161871417159952 -0.6394265433229458 C -0.616077223302229 -0.639255960106385 -0.6159397860582935 -0.6391047791380564 -0.6157804194476408 -0.6389791488277561 C -0.5926030604695585 -0.6158250311221509 -0.5550684054185654 -0.6158250311221509 -0.5319142877129606 -0.6389791488277561 L 0.2603516394508385 -1.431245075991555 C 0.417050108811555 -1.431245075991555 0.464578511027828 -1.4520750664494202 0.5017994089003761 -1.4892785333676104 C 0.5389738242279696 -1.5265052415582778 0.8964245949303049 -1.8838688574888227 0.8964245949303049 -1.8838688574888227 C 0.9069759829332407 -1.8944650979244457 0.9069759829332407 -1.9115974753684242 0.8964245949303049 -1.9221937158040472" fill="#343432" transform="matrix(1,0,0,1,0,0)" fill-rule="nonzero"></path></g><g clip-path="url(#b32a43dc5-e787-409d-bf24-7ba1084f074a24ac74a6-09dc-45f6-bd37-da8eb8e209d2)"><path d=" M -0.4156846840535081 -1.9351158633014791 C -0.6828024389543284 -2.15895836884939 -0.8004613808711407 -2.09427209722668 -0.8386584121877394 -2.0561331690912747 C -0.8768786847768155 -2.017918706820318 -0.9415649563995252 -1.9002016617223125 -0.7176411063979435 -1.633147820320805 C -0.6145312010519806 -1.5100039380993275 -0.5513672327765402 -1.5009107902425467 -0.4903588925233783 -1.4921081582917333 C -0.4369504483703246 -1.4844094867835964 -0.3816652714647212 -1.4764144890513726 -0.2825702959392282 -1.3772497897084472 L 0.4748627740990754 -0.6198922538056952 C 0.4911549061057294 -0.6036814662527126 0.5127867204640646 -0.5946580422133638 0.5358246318072828 -0.5946580422133638 C 0.5588625431505003 -0.5946580422133638 0.5804885471907164 -0.6036814662527126 0.5967632482430123 -0.6198922538056952 C 0.6137874803327041 -0.6369803993947005 0.6228167146901722 -0.658618024071155 0.6228167146901722 -0.6816501250962534 C 0.6228167146901722 -0.7046764158032324 0.6137874803327041 -0.7263140404796873 0.5975825030978408 -0.7425945518501027 L -0.16241291723109597 -1.5026713166327095 C -0.2590094559652689 -1.5999999554499205 -0.2669289195619413 -1.6547912553153792 -0.27465083234255583 -1.7078162184725558 C -0.2834302230208917 -1.7688419896800758 -0.29259890501322416 -1.831988527001158 -0.4156846840535081 -1.9351158633014791" fill="#343432" transform="matrix(1,0,0,1,0,0)" fill-rule="nonzero"></path></g><g clip-path="url(#b32a43dc5-e787-409d-bf24-7ba1084f074a24ac74a6-09dc-45f6-bd37-da8eb8e209d2)"><path d=" M -0.4156846840535081 -1.9351158633014791 C -0.6828024389543284 -2.15895836884939 -0.8004613808711407 -2.09427209722668 -0.8386584121877394 -2.0561331690912747 C -0.8768786847768155 -2.017918706820318 -0.9415649563995252 -1.9002016617223125 -0.7176411063979435 -1.633147820320805 C -0.6145312010519806 -1.5100039380993275 -0.5513672327765402 -1.5009107902425467 -0.4903588925233783 -1.4921081582917333 C -0.4369504483703246 -1.4844094867835964 -0.3816652714647212 -1.4764144890513726 -0.2825702959392282 -1.3772497897084472 L 0.4748627740990754 -0.6198922538056952 C 0.4911549061057294 -0.6036814662527126 0.5127867204640646 -0.5946580422133638 0.5358246318072828 -0.5946580422133638 C 0.5588625431505003 -0.5946580422133638 0.5804885471907164 -0.6036814662527126 0.5967632482430123 -0.6198922538056952 C 0.6137874803327041 -0.6369803993947005 0.6228167146901722 -0.658618024071155 0.6228167146901722 -0.6816501250962534 C 0.6228167146901722 -0.7046764158032324 0.6137874803327041 -0.7263140404796873 0.5975825030978408 -0.7425945518501027 L -0.16241291723109597 -1.5026713166327095 C -0.2590094559652689 -1.5999999554499205 -0.2669289195619413 -1.6547912553153792 -0.27465083234255583 -1.7078162184725558 C -0.2834302230208917 -1.7688419896800758 -0.29259890501322416 -1.831988527001158 -0.4156846840535081 -1.9351158633014791 Z" fill="none" transform="matrix(1,0,0,1,0,0)" fill-rule="nonzero" stroke-dasharray="none" stroke-miterlimit="10" stroke-linejoin="miter" stroke-linecap="butt" stroke-width="0.053640856877827686" stroke="#d4d6c9"></path></g><g clip-path="url(#b32a43dc5-e787-409d-bf24-7ba1084f074a24ac74a6-09dc-45f6-bd37-da8eb8e209d2)"><path d=" M -0.8492738633917896 -1.6026145986036273 L -0.7900144288925517 -1.420211281882912 L -0.5982216380909686 -1.420211281882912 L -0.7533745628319384 -1.3074794897313076 L -0.6941151283327005 -1.125076173010592 L -0.8492738633917896 -1.2378079651621965 L -1.0044267881327593 -1.125076173010592 L -0.9451673536335214 -1.3074794897313076 L -1.1003260886926105 -1.420211281882912 L -0.9085332978910275 -1.420211281882912 Z" fill="#aac527" transform="matrix(1,0,0,1,0,0)" fill-rule="nonzero"></path></g><g clip-path="url(#b32a43dc5-e787-409d-bf24-7ba1084f074a24ac74a6-09dc-45f6-bd37-da8eb8e209d2)"><path d=" M 0.8492738633917898 -1.6026145986036273 L 0.9085332978910277 -1.420211281882912 L 1.1003260886926105 -1.420211281882912 L 0.9451731639516407 -1.3074794897313076 L 1.004432598450879 -1.125076173010592 L 0.8492738633917898 -1.2378079651621965 L 0.6941209386508198 -1.125076173010592 L 0.7533803731500579 -1.3074794897313076 L 0.5982216380909688 -1.420211281882912 L 0.7900144288925519 -1.420211281882912 Z" fill="#aac527" transform="matrix(1,0,0,1,0,0)" fill-rule="nonzero"></path></g><g clip-path="url(#b32a43dc5-e787-409d-bf24-7ba1084f074a24ac74a6-09dc-45f6-bd37-da8eb8e209d2)"><path d=" M 0.0000029051590599848964 -0.6650384255930353 L 0.05926233965829786 -0.48263510887231975 L 0.2510551304598809 -0.48263510887231975 L 0.09590220571891117 -0.3699033167207153 L 0.15516164021814904 -0.1875 L 0.0000029051590599848964 -0.30023179215160445 L -0.15515001958190988 -0.1875 L -0.0958905850826719 -0.3699033167207153 L -0.25104932014176107 -0.48263510887231975 L -0.05925652934017789 -0.48263510887231975 Z" fill="#aac527" transform="matrix(1,0,0,1,0,0)" fill-rule="nonzero"></path></g><g clip-path="url(#b32a43dc5-e787-409d-bf24-7ba1084f074a24ac74a6-09dc-45f6-bd37-da8eb8e209d2)"><path d=" M 0.0000029051590599848964 -2.5217720631758835 L 0.05926233965829786 -2.3393687464551682 L 0.2510551304598809 -2.3393687464551682 L 0.09590220571891117 -2.226636954303564 L 0.15516164021814904 -2.0442336375828485 L 0.0000029051590599848964 -2.156965429734453 L -0.15515001958190988 -2.0442336375828485 L -0.0958905850826719 -2.226636954303564 L -0.25104932014176107 -2.3393687464551682 L -0.05925652934017789 -2.3393687464551682 Z" fill="#aac527" transform="matrix(1,0,0,1,0,0)" fill-rule="nonzero"></path></g></g></g></g><defs><clipPath id="SvgjsClipPath1002"><path d=" M -1.1003260886926105 -2.5217720631758835 h 2.200652177385221 v 2.3342720631758835 h -2.200652177385221 Z"></path></clipPath><clipPath id="b32a43dc5-e787-409d-bf24-7ba1084f074a24ac74a6-09dc-45f6-bd37-da8eb8e209d2"><path d=" M -1.1061364068119592 -2.527582381295232 L 1.106142217130079 -2.527582381295232 L 1.106142217130079 -0.1816896818806515 L -1.1061364068119592 -0.1816896818806515 Z"></path></clipPath></defs></svg>